# xmcd
#
# Track frame offsets:
#  150
#  17209
#  33711
#  51337
#  76653
#  95743
#  111647
#  124747
#  140476
#  155469
#  170660
#  186096
#  197028
#  216928
#  227816
#  240690
#  253586
#  263286
#  277802
#  292380
#  303886
#  312694
#  320238
#
# Disc length: 4369 seconds
#
# Revision: 0
# Processed by: cddbd v1.5.1PL2 Copyright (c) Steve Scherf et al.
# Submitted via: Collectorz.com_Music_Collector 6.9
#
DISCID=60110f17
DTITLE=Bjartmar Hannesson - Haukur Ingibergsson - Sögur Úr Sveitinni
DYEAR=2005
DGENRE=General Folk
TTITLE0=Óvissuferð
TTITLE1=Minkurinn
TTITLE2=Smalað Á Hvítárbakka
TTITLE3=Ungverjalandsferð
TTITLE4=Grímsstaðatuddinn
TTITLE5=Jóhannes Villist
TTITLE6=Gauti Geldir Fola
TTITLE7=Hlöðutúnskvígan
TTITLE8=Guðmundur Þjálfar
TTITLE9=Sverrir Dýralæknir
TTITLE10=Tommi Og Kálfarnir
TTITLE11=Bak Við Fjárhúsin
TTITLE12=Hundasálfræði
TTITLE13=Halldór Og Hondan
TTITLE14=Brynjólfur Og Bréfið
TTITLE15=Jólasaga
TTITLE16=Sigurjón Og Múgavélin
TTITLE17=Lög Og Regla
TTITLE18=Sofandi Sveitarstýra
TTITLE19=Jón Sigurðsson
TTITLE20=Sunnan Hvítár
TTITLE21=Bjórtréð
TTITLE22=Ærlegt Lag
EXTD=
EXTT0=
EXTT1=
EXTT2=
EXTT3=
EXTT4=
EXTT5=
EXTT6=
EXTT7=
EXTT8=
EXTT9=
EXTT10=
EXTT11=
EXTT12=
EXTT13=
EXTT14=
EXTT15=
EXTT16=
EXTT17=
EXTT18=
EXTT19=
EXTT20=
EXTT21=
EXTT22=
PLAYORDER=
